<?xml version="1.0" encoding="UTF-8"?>
<svg version="1.1" xmlns="http://www.w3.org/2000/svg" width="500" height="500">
<path d="M0 0 C165 0 330 0 500 0 C500 165 500 330 500 500 C335 500 170 500 0 500 C0 335 0 170 0 0 Z " fill="#000000" transform="translate(0,0)"/>
<path d="M0 0 C0.99 0 1.98 0 3 0 C4.65467721 3.51673546 6.29793224 7.03869574 7.9375 10.5625 C8.45948975 11.68390381 8.98147949 12.80530762 9.51928711 13.96069336 C12.95422753 21.38366905 16.25417299 28.85731568 19.4765625 36.375 C19.85629715 37.25824448 20.2360318 38.14148895 20.62727356 39.05149841 C22.53121897 43.48196551 24.42327903 47.91695394 26.29858398 52.35961914 C27.00198825 54.00165904 27.70582555 55.64351352 28.41015625 57.28515625 C28.72848419 58.05065796 29.04681213 58.81615967 29.37478638 59.6048584 C30.16881995 61.44045989 31.07535957 63.22659586 32 65 C32.99 65.33 33.98 65.66 35 66 C37.38688271 64.52635095 37.38688271 64.52635095 39.875 62.3125 C40.85210937 61.48363281 41.82921875 60.65476563 42.8359375 59.80078125 C46.68119107 56.42928787 50.4213683 52.94524849 54.1550293 49.45117188 C58.40427669 45.4925198 62.82094845 41.80029145 67.36328125 38.1796875 C70.98583814 35.18504047 74.35213197 31.93813177 77.7109375 28.65234375 C80.38877707 26.71936399 81.77054109 26.64053726 85 27 C86.7580163 31.66129633 87.4828066 36.13456243 87.9375 41.0625 C88.62450497 47.81677016 89.45546089 54.53224658 90.4375 61.25 C91.55890656 68.93264392 92.64365326 76.61889349 93.6875 84.3125 C93.81890381 85.28026367 93.95030762 86.24802734 94.08569336 87.24511719 C94.39102675 89.49666898 94.69583818 91.74828969 95 94 C97.82135796 95.30569054 97.82135796 95.30569054 99.7956543 94.25 C100.46508057 93.8375 101.13450684 93.425 101.82421875 93 C102.59411133 92.53215088 103.36400391 92.06430176 104.15722656 91.58227539 C104.9922168 91.06012451 105.82720703 90.53797363 106.6875 90 C107.55729492 89.46689209 108.42708984 88.93378418 109.32324219 88.38452148 C112.22309446 86.60167019 115.11217477 84.80226101 118 83 C119.0430127 82.3517627 120.08602539 81.70352539 121.16064453 81.03564453 C126.33801805 77.81736213 131.50921872 74.58949623 136.671875 71.34765625 C137.5798584 70.77877686 138.4878418 70.20989746 139.42333984 69.6237793 C141.08039283 68.57952504 142.73224658 67.52694976 144.37744141 66.46411133 C145.43970947 65.78191528 145.43970947 65.78191528 146.5234375 65.0859375 C147.13106934 64.69067871 147.73870117 64.29541992 148.36474609 63.88818359 C150.69047982 62.62496781 152.42494388 62.46984139 155 63 C155.66 63.66 156.32 64.32 157 65 C156.61763749 69.26101748 154.84720342 73.03520794 153.1484375 76.9140625 C152.85760788 77.58887665 152.56677826 78.2636908 152.26713562 78.95895386 C151.30751498 81.18291082 150.34120981 83.40389882 149.375 85.625 C148.70057323 87.18532339 148.02667196 88.74587403 147.35327148 90.30664062 C145.94803255 93.56242275 144.54051354 96.81720476 143.13134766 100.07128906 C140.07691441 107.12897727 137.04752694 114.19739134 134.01937866 121.26638794 C133.06976482 123.48304195 132.11951195 125.69942121 131.16918945 127.91577148 C126.73598958 138.25897585 122.33900861 148.61687715 118 159 C112.71995049 157.99392862 107.47433977 156.89852116 102.25 155.6328125 C91.22275853 152.96160092 80.21863635 150.53511469 69 148.8125 C67.61941406 148.59907959 67.61941406 148.59907959 66.2109375 148.38134766 C63.53487047 147.98958515 60.85653 147.6274409 58.17398071 147.28308105 C56.56312203 147.07332594 54.95320629 146.85630144 53.34384155 146.63537598 C36.11231324 144.29087286 19.19230127 143.51120533 1.8125 143.625 C-0.05246628 143.63098206 -0.05246628 143.63098206 -1.95510864 143.63708496 C-20.82361052 143.70791051 -39.30336908 144.36441354 -58 147 C-59.11101074 147.14453613 -60.22202148 147.28907227 -61.36669922 147.43798828 C-75.74138118 149.31348861 -89.71623512 152.15557263 -103.76171875 155.73046875 C-107.83759196 156.75689336 -111.82635325 157.51550674 -116 158 C-120.98754962 148.46100849 -125.18781673 138.68304561 -129.3125 128.75 C-130.71159803 125.39241625 -132.11317635 122.03587294 -133.515625 118.6796875 C-134.05607201 117.38498032 -134.05607201 117.38498032 -134.60743713 116.06411743 C-137.30940033 109.60724933 -140.07366401 103.17892809 -142.859375 96.7578125 C-144.04255093 94.01914867 -145.22499329 91.28016906 -146.40731812 88.5411377 C-147.17536215 86.76850675 -147.94733762 84.99757387 -148.72329712 83.22839355 C-149.80622756 80.75811458 -150.87514855 78.28219875 -151.94140625 75.8046875 C-152.26763977 75.07097931 -152.59387329 74.33727112 -152.92999268 73.58132935 C-154.49621114 69.90485307 -155.22961013 67.80890146 -154 64 C-152.05078125 63.1875 -152.05078125 63.1875 -149 63 C-145.85747255 64.32384922 -143.05661173 66.16909087 -140.1875 68 C-139.32672852 68.53310791 -138.46595703 69.06621582 -137.57910156 69.61547852 C-134.71063037 71.39664062 -131.85574283 73.19851275 -129 75 C-126.87717884 76.32302239 -124.75346236 77.6446092 -122.62890625 78.96484375 C-118.52350551 81.51923225 -114.42275586 84.08072636 -110.328125 86.65234375 C-108.9659082 87.50481689 -108.9659082 87.50481689 -107.57617188 88.37451172 C-105.91826699 89.42060068 -104.26780899 90.47863598 -102.62695312 91.55126953 C-101.91990234 92.01001465 -101.21285156 92.46875977 -100.484375 92.94140625 C-99.87819336 93.34174072 -99.27201172 93.7420752 -98.64746094 94.15454102 C-96.86378063 95.22828813 -96.86378063 95.22828813 -94 95 C-92.42269044 91.84538088 -92.31226638 88.37991856 -91.87890625 84.9140625 C-91.77408432 84.10190277 -91.66926239 83.28974304 -91.56126404 82.45297241 C-91.22490957 79.84407538 -90.89333198 77.23460265 -90.5625 74.625 C-90.12907063 71.22099374 -89.69308187 67.81733224 -89.25390625 64.4140625 C-89.14789093 63.59097595 -89.04187561 62.7678894 -88.93264771 61.91986084 C-88.20940034 56.38640913 -87.34235961 50.8904752 -86.38647461 45.39208984 C-85.75327214 41.47287453 -85.55659173 37.55260618 -85.34375 33.59375 C-84.99711623 30.97824067 -84.32299735 29.2618987 -83 27 C-77.64926884 27.37937237 -74.97300916 29.32472576 -71.3125 33 C-70.26148058 34.01027969 -69.20804634 35.01805254 -68.15234375 36.0234375 C-67.62624512 36.52713867 -67.10014648 37.03083984 -66.55810547 37.54980469 C-64.25636924 39.69212891 -61.82626047 41.65703769 -59.375 43.625 C-55.81815864 46.48881783 -52.37460948 49.42346328 -49 52.5 C-45.39815444 55.76183134 -41.76723038 58.98011718 -38.0625 62.125 C-37.16660156 62.89070313 -36.27070313 63.65640625 -35.34765625 64.4453125 C-34.57292969 64.95835937 -33.79820312 65.47140625 -33 66 C-29.63802548 65.26146873 -29.63802548 65.26146873 -28.18164062 61.59545898 C-27.49565412 60.06716399 -26.8213874 58.53357719 -26.15625 56.99609375 C-25.6072831 55.76223434 -25.6072831 55.76223434 -25.04722595 54.50344849 C-23.85519332 51.81894571 -22.67775906 49.12829129 -21.5 46.4375 C-20.68876341 44.60551453 -19.87634285 42.77405289 -19.06274414 40.94311523 C-17.44950707 37.31113688 -15.84053783 33.67731978 -14.23486328 30.04199219 C-11.35221492 23.52580624 -8.40764746 17.03924201 -5.4375 10.5625 C-4.99148437 9.58273193 -4.54546875 8.60296387 -4.0859375 7.59350586 C-3.68503906 6.71831299 -3.28414062 5.84312012 -2.87109375 4.94140625 C-2.35953735 3.82294312 -2.35953735 3.82294312 -1.83764648 2.68188477 C-1 1 -1 1 0 0 Z " fill="#FCE700" transform="translate(249,88)"/>
<path d="M0 0 C1.02464355 0.00870117 2.04928711 0.01740234 3.10498047 0.02636719 C82.85217279 0.85217279 82.85217279 0.85217279 99 17 C99.08669432 18.4887186 99.10703494 19.981445 99.09765625 21.47265625 C99.09443359 22.37177734 99.09121094 23.27089844 99.08789062 24.19726562 C99.07951172 25.14279297 99.07113281 26.08832031 99.0625 27.0625 C99.05798828 28.01189453 99.05347656 28.96128906 99.04882812 29.93945312 C99.0370011 32.29303065 99.02052025 34.64648477 99 37 C91.41653655 36.48449667 84.30375636 35.01069192 76.9375 33.1875 C67.73284818 30.9839158 58.53618541 29.10735261 49.1875 27.625 C47.61440063 27.37399536 47.61440063 27.37399536 46.00952148 27.11791992 C41.6183736 26.44611152 37.45077452 25.9154507 33 26 C33.42667969 26.34289062 33.85335937 26.68578125 34.29296875 27.0390625 C42.93691298 34.27502406 50.52031226 42.80906148 57.75 51.4375 C64.98258811 59.71597707 73.42865424 65.26296634 84.53125 66.34375 C91.31127284 66.51759674 96.95937509 66.19797789 103 63 C104.2498244 59.25052681 104.58685908 55.92054467 104 52 C102.4607536 49.78249092 102.4607536 49.78249092 100 49 C97.3015411 49.22197813 97.3015411 49.22197813 95 50 C95.57344937 47.13275314 95.8614515 46.1385485 98 44 C102.69244751 44.26561024 106.38717102 44.90328944 110 48 C112.76563889 54.71655158 113.06996746 60.97135383 110.3125 67.625 C106.07239597 76.13434966 99.93736912 81.50948494 91 85 C81.98763378 87.75201696 73.32218483 88.51593236 63.9375 88.4375 C62.67832764 88.43137695 61.41915527 88.42525391 60.12182617 88.41894531 C45.79225854 88.18162525 32.06285908 86.07624077 19 80 C17.90558594 79.55785156 16.81117188 79.11570312 15.68359375 78.66015625 C4.21907161 73.9976699 -4.98274281 68.43218625 -13.80859375 59.72265625 C-16.0595421 57.5879952 -16.0595421 57.5879952 -20 58 C-22.12387586 59.67944758 -22.12387586 59.67944758 -24.25 61.9375 C-46.00824261 82.20065869 -78.51316181 88.9208331 -107.2421875 88.2734375 C-109.16195289 88.19338174 -111.08133058 88.10303278 -113 88 C-113.81484863 87.95915283 -114.62969727 87.91830566 -115.46923828 87.8762207 C-120.94209123 87.4514917 -125.2682507 85.95693499 -130.125 83.4375 C-131.16756958 82.90394897 -131.16756958 82.90394897 -132.23120117 82.35961914 C-139.06489289 78.69568982 -142.93905444 74.39058786 -146.9375 67.8125 C-148.48046822 62.27596698 -148.91512471 56.69250807 -148 51 C-145.76367796 47.71397578 -143.90090018 45.11454291 -140 44 C-136.25 44.375 -136.25 44.375 -133 45 C-132.67 46.32 -132.34 47.64 -132 49 C-133.670625 49.1546875 -133.670625 49.1546875 -135.375 49.3125 C-136.57125 49.539375 -137.7675 49.76625 -139 50 C-141.50031654 53.75047482 -141.53603554 55.55856266 -141 60 C-138.45862841 63.15954305 -136.85377341 64.71540886 -133 66 C-120.52470762 67.16632911 -110.34383247 65.4791875 -100 57.76171875 C-94.49019805 52.96359956 -89.91655003 47.60906703 -85.40234375 41.88671875 C-82.63408582 38.560308 -79.6870573 35.49171651 -76.625 32.4375 C-76.11267822 31.92461426 -75.60035645 31.41172852 -75.07250977 30.88330078 C-72.80659087 28.65010137 -70.65678303 26.77118868 -68 25 C-81.98858729 26.73253145 -95.8768725 28.63713613 -109.6875 31.5 C-110.66589844 31.70141602 -111.64429688 31.90283203 -112.65234375 32.11035156 C-118.14701401 33.27947027 -123.48083243 34.6794589 -128.81958008 36.43164062 C-131 37 -131 37 -135 37 C-135 30.4 -135 23.8 -135 17 C-128.28500338 14.12214431 -121.99535142 12.2752367 -114.9375 10.5625 C-113.68138916 10.25683105 -112.42527832 9.95116211 -111.13110352 9.63623047 C-98.1322605 6.56086254 -85.01267468 4.85581503 -71.74780273 3.36962891 C-69.10471806 3.06773167 -69.10471806 3.06773167 -66.98681641 2.48803711 C-46.13190663 -2.63471598 -21.36835684 -0.32100141 0 0 Z " fill="#FCA300" transform="translate(268,240)"/>
<path d="M0 0 C1.7580163 4.66129633 2.4828066 9.13456243 2.9375 14.0625 C3.62450497 20.81677016 4.45546089 27.53224658 5.4375 34.25 C6.55890656 41.93264392 7.64365326 49.61889349 8.6875 57.3125 C8.81890381 58.28026367 8.95030762 59.24802734 9.08569336 60.24511719 C9.39102675 62.49666898 9.69583818 64.74828969 10 67 C12.82135796 68.30569054 12.82135796 68.30569054 14.7956543 67.25 C15.46508057 66.8375 16.13450684 66.425 16.82421875 66 C17.59411133 65.53215088 18.36400391 65.06430176 19.15722656 64.58227539 C19.9922168 64.06012451 20.82720703 63.53797363 21.6875 63 C22.55729492 62.46689209 23.42708984 61.93378418 24.32324219 61.38452148 C27.22309446 59.60167019 30.11217477 57.80226101 33 56 C34.56451904 55.02764404 34.56451904 55.02764404 36.16064453 54.03564453 C41.33801805 50.81736213 46.50921872 47.58949623 51.671875 44.34765625 C52.5798584 43.77877686 53.4878418 43.20989746 54.42333984 42.6237793 C56.08039283 41.57952504 57.73224658 40.52694976 59.37744141 39.46411133 C60.08562012 39.00931396 60.79379883 38.5545166 61.5234375 38.0859375 C62.13106934 37.69067871 62.73870117 37.29541992 63.36474609 36.88818359 C65.69047982 35.62496781 67.42494388 35.46984139 70 36 C70.66 36.66 71.32 37.32 72 38 C71.61763749 42.26101748 69.84720342 46.03520794 68.1484375 49.9140625 C67.85760788 50.58887665 67.56677826 51.2636908 67.26713562 51.95895386 C66.30751498 54.18291082 65.34120981 56.40389882 64.375 58.625 C63.70057323 60.18532339 63.02667196 61.74587403 62.35327148 63.30664062 C60.94803255 66.56242275 59.54051354 69.81720476 58.13134766 73.07128906 C55.07691441 80.12897727 52.04752694 87.19739134 49.01937866 94.26638794 C48.06976482 96.48304195 47.11951195 98.69942121 46.16918945 100.91577148 C41.73598958 111.25897585 37.33900861 121.61687715 33 132 C27.71995049 130.99392862 22.47433977 129.89852116 17.25 128.6328125 C0.41932462 124.55864038 -16.46625744 121.3762154 -33.6872406 119.47590637 C-34.49552024 119.38657239 -35.30379988 119.29723841 -36.13657284 119.20519733 C-37.05896928 119.10362465 -37.05896928 119.10362465 -38 119 C-38.27886428 107.45606213 -38.49166803 95.9129337 -38.62174606 84.36630535 C-38.68420121 79.0036486 -38.76880448 73.64330678 -38.90527344 68.28198242 C-39.03631379 63.10110305 -39.10754095 57.9224397 -39.13852692 52.74003029 C-39.16058657 50.76988661 -39.20366928 48.79985535 -39.26876068 46.83066368 C-39.78265082 30.62977066 -39.78265082 30.62977066 -35.44641113 25.43203735 C-32.57170601 22.56011263 -29.35945588 20.28173434 -26 18 C-24.1134632 16.47247258 -22.23651898 14.93291791 -20.375 13.375 C-19.48296875 12.66214844 -18.5909375 11.94929688 -17.671875 11.21484375 C-14.04061254 8.20471829 -10.6597652 4.94977031 -7.2890625 1.65234375 C-4.61122293 -0.28063601 -3.22945891 -0.35946274 0 0 Z " fill="#FDA400" transform="translate(334,115)"/>
<path d="M0 0 C1.29647461 0.0460437 1.29647461 0.0460437 2.61914062 0.09301758 C3.41126953 0.13193115 4.20339844 0.17084473 5.01953125 0.2109375 C6.02077026 0.25806885 6.02077026 0.25806885 7.04223633 0.30615234 C9.1875 0.625 9.1875 0.625 15.1875 2.625 C15.1875 8.895 15.1875 15.165 15.1875 21.625 C12.71354167 20.87630208 10.23958333 20.12760417 7.765625 19.37890625 C2.72054973 17.90360394 -1.8592935 17.41140938 -7.125 17.375 C-7.85912109 17.354375 -8.59324219 17.33375 -9.34960938 17.3125 C-14.57142174 17.27543301 -17.9827365 18.51607612 -22.8125 20.625 C-25.56010128 20.90553587 -28.0181554 21.04741871 -30.75 21 C-31.41451172 21.01160156 -32.07902344 21.02320313 -32.76367188 21.03515625 C-36.45764883 21.01365881 -39.34904942 20.54258154 -42.7734375 19.1328125 C-47.0579175 17.38137772 -50.90141324 17.08844366 -55.5 17.125 C-56.27657959 17.12636963 -57.05315918 17.12773926 -57.85327148 17.12915039 C-64.67084372 17.30798805 -73.77501391 18.58751391 -78.8125 23.625 C-81.41496898 24.08517373 -84.01075811 24.49242802 -86.625 24.875 C-112.81999735 28.74569442 -112.81999735 28.74569442 -138.48461914 35.10107422 C-141.81178482 36.11719643 -144.28237112 36.625 -147.8125 36.625 C-147.8125 30.025 -147.8125 23.425 -147.8125 16.625 C-141.09750338 13.74714431 -134.80785142 11.9002367 -127.75 10.1875 C-126.49388916 9.88183105 -125.23777832 9.57616211 -123.94360352 9.26123047 C-110.9447605 6.18586254 -97.82517468 4.48081503 -84.56030273 2.99462891 C-81.91721806 2.69273167 -81.91721806 2.69273167 -79.79931641 2.11303711 C-55.25856857 -3.91509694 -25.06560148 -0.97549119 0 0 Z " fill="#FAE500" transform="translate(280.8125,240.375)"/>
<path d="M0 0 C10.33283902 6.45802439 17.27700512 13.98449497 24.85546875 23.39453125 C31.97639646 32.04600444 40.55048745 40.09174791 52 42 C59.86326064 42.51793932 66.922534 42.74689377 74 39 C75.2498244 35.25052681 75.58685908 31.92054467 75 28 C73.4607536 25.78249092 73.4607536 25.78249092 71 25 C68.3015411 25.22197813 68.3015411 25.22197813 66 26 C66.57344937 23.13275314 66.8614515 22.1385485 69 20 C73.69244751 20.26561024 77.38717102 20.90328944 81 24 C83.76563889 30.71655158 84.06996746 36.97135383 81.3125 43.625 C77.07239597 52.13434966 70.93736912 57.50948494 62 61 C52.97975123 63.75442398 44.32758692 64.49372807 34.9375 64.4375 C33.78056641 64.45748047 32.62363281 64.47746094 31.43164062 64.49804688 C20.21327409 64.49194662 11.54389475 62.30877895 0 60 C0 40.2 0 20.4 0 0 Z " fill="#FAE500" transform="translate(297,264)"/>
<path d="M0 0 C5.78184394 3.56752073 8.90594148 7.29012791 10.9375 13.8125 C12.03383114 21.99487388 10.09443508 27.64083579 5.1875 34.125 C-0.45199883 38.35462412 -6.33397973 39.43805973 -13.24609375 39.2265625 C-18.65727819 38.43102082 -23.74005347 36.27011537 -27.5390625 32.25 C-31.88669762 25.9944099 -31.80885726 19.14589405 -31.0625 11.8125 C-29.23108023 6.42949515 -25.49958955 2.43013975 -20.5703125 -0.34375 C-14.24026619 -2.47348521 -6.27690123 -2.38136823 0 0 Z " fill="#F5E000" transform="translate(183.0625,342.1875)"/>
<path d="M0 0 C3.940253 2.97839252 6.79650538 6.07701613 8.375 10.8125 C9.03321656 19.4705794 8.74651273 25.69176222 3.125 32.5625 C-2.69613301 37.32524519 -7.52129649 38.34302067 -14.9140625 38.08984375 C-20.85204947 37.48235517 -24.92067807 35.94302052 -29 31.5 C-32.8526698 26.48524774 -34.16315908 21.52846764 -34.00390625 15.25390625 C-33.05554372 9.14332297 -30.26773144 4.18703039 -25.5625 0.25 C-18.08887516 -3.40730577 -7.30487443 -4.39670744 0 0 Z " fill="#F5E100" transform="translate(320.625,343.1875)"/>
<path d="M0 0 C30.47199679 -0.72077139 30.47199679 -0.72077139 39.25 5.1875 C41.23398293 8.376044 41.78399618 10.35333941 41.56640625 14.06640625 C40.51061391 17.67066285 38.06278308 18.97856317 35 21 C34.01 21.495 34.01 21.495 33 22 C33.8353125 22.7115625 33.8353125 22.7115625 34.6875 23.4375 C38.79210367 27.9858446 41.27497974 33.54995949 44 39 C37.07 39 30.14 39 23 39 C23.33 36.36 23.66 33.72 24 31 C21.72552916 26.27609901 19.82708865 24.71594181 15 23 C15.11455681 24.91731918 15.24206258 26.8338675 15.375 28.75 C15.44460937 29.81734375 15.51421875 30.8846875 15.5859375 31.984375 C15.87451003 35.28466713 15.87451003 35.28466713 18 39 C11.73 39 5.46 39 -1 39 C-0.34 37.68 0.32 36.36 1 35 C1.27587044 31.6076002 1.27587044 31.6076002 1.1953125 27.828125 C1.1924826 27.1457074 1.18965271 26.46328979 1.18673706 25.76019287 C1.17558098 23.58994693 1.15048557 21.42012029 1.125 19.25 C1.11496426 17.77474556 1.10583944 16.29948463 1.09765625 14.82421875 C1.07565687 11.21601058 1.04115883 7.60804625 1 4 C0.34 3.67 -0.32 3.34 -1 3 C-0.67 2.01 -0.34 1.02 0 0 Z " fill="#F69F00" transform="translate(170,395)"/>
<path d="M0 0 C3.77068057 -0.08849232 7.54108765 -0.14088454 11.3125 -0.1875 C12.36501953 -0.21263672 13.41753906 -0.23777344 14.50195312 -0.26367188 C22.83275004 -0.34057154 30.94189304 0.3498077 38.0625 5 C40.9670663 7.99826199 41.95435962 9.60227669 42.4375 13.8125 C42.33588476 17.26741806 41.88252558 18.18867104 39.9375 21.3125 C32.940374 27.71412591 25.01203848 28.15537997 16 28 C16 30.64 16 33.28 16 36 C16.66 36 17.32 36 18 36 C18 36.99 18 37.98 18 39 C12.06 39 6.12 39 0 39 C0 38.01 0 37.02 0 36 C0.66 36 1.32 36 2 36 C1.88153302 31.51577728 1.75727003 27.03176358 1.62768555 22.54785156 C1.58443293 21.02315614 1.54275115 19.49841531 1.50268555 17.97363281 C1.44474797 15.77915778 1.38112205 13.58490932 1.31640625 11.390625 C1.29969376 10.7113092 1.28298126 10.03199341 1.26576233 9.33209229 C1.16492528 6.09461448 0.96860824 3.10230396 0 0 Z " fill="#F0DC00" transform="translate(242,341)"/>
<path d="M0 0 C3.79504091 2.55483146 5.99285165 6.08811924 7.79296875 10.20703125 C8.83040837 16.62468102 7.49516616 21.90615768 3.79296875 27.20703125 C-0.44503339 31.33636667 -4.15868076 33.00555415 -10.01953125 33.58203125 C-15.54751107 33.39428854 -19.91498778 31.51572395 -23.8203125 27.58203125 C-27.44892818 22.67573399 -27.90099049 17.98143786 -27.62890625 11.98046875 C-26.85717815 6.90707103 -24.42404969 4.33043289 -20.76953125 0.95703125 C-13.76005956 -3.82992503 -7.41528119 -4.05904174 0 0 Z " fill="#FAA400" transform="translate(425.20703125,115.79296875)"/>
<path d="M0 0 C5.07821961 2.96229477 8.89610323 6.34065343 10.796875 12.04296875 C11.56968968 18.46619893 10.79368433 23.83466197 6.796875 29.04296875 C2.71896533 32.99614236 -1.18542122 34.3587172 -6.828125 34.54296875 C-12.01857588 34.27054177 -15.84583663 33.39383399 -19.63671875 29.61328125 C-24.12028841 24.5073464 -24.57253445 20.38774914 -24.46875 13.83203125 C-24.07719581 9.72071224 -23.08363821 7.02414506 -20.203125 4.04296875 C-14.15307508 -0.71237048 -7.35884863 -3.19666297 0 0 Z " fill="#FBA400" transform="translate(344.203125,73.95703125)"/>
<path d="M0 0 C4.41854291 3.11306432 8.02390999 6.75922996 9.75 11.9375 C10.59068326 18.02644874 9.72302706 22.17752243 6.18359375 27.2109375 C2.90544155 31.15901181 -0.29009548 33.56948345 -5.44921875 34.2109375 C-11.04990687 34.43953702 -14.95549261 33.86667841 -19.5546875 30.54296875 C-23.89250011 26.43504022 -25.45956238 21.82884342 -25.8125 15.9375 C-25.56585796 10.59358922 -23.83032622 6.88131112 -20.25 2.9375 C-14.45728057 -2.26712608 -7.14982488 -2.33744275 0 0 Z " fill="#FAE500" transform="translate(258.25,47.0625)"/>
<path d="M0 0 C5.04714221 3.01505312 8.86966463 6.34727515 10.7734375 12.05859375 C11.3370043 17.74845086 11.10140183 22.22767778 7.7734375 27.05859375 C3.01021061 31.95988519 -0.2395043 33.86588032 -7.1015625 34.30859375 C-11.76867495 34.22200539 -15.24283887 33.02033706 -18.63671875 29.6640625 C-22.92410623 24.72669207 -24.75880062 20.91616796 -24.609375 14.4375 C-23.74181774 9.0462513 -20.50368576 5.24449392 -16.6015625 1.62109375 C-11.62664196 -1.65188029 -5.53035529 -2.33827302 0 0 Z " fill="#F9E400" transform="translate(168.2265625,73.94140625)"/>
<path d="M0 0 C4.58053909 1.86504035 8.52656605 4.63511656 11 9 C12.85804418 14.57413253 12.80631384 19.94275568 10.3125 25.3125 C7.81553013 29.75746055 4.87177531 32.3760749 0 34 C-5.51631707 34.48556326 -10.39118901 34.71821919 -15.5 32.4375 C-19.78051508 28.2639978 -22.84872978 23.26905329 -23.25 17.25 C-23.15197886 12.31329892 -21.89740139 8.87544073 -18.3125 5.33203125 C-12.32902699 0.0840268 -8.03136771 -0.97415511 0 0 Z " fill="#FAE500" transform="translate(90,114)"/>
<path d="M0 0 C4.62 0 9.24 0 14 0 C16.83793682 6.45630626 19.60966833 12.8913029 22.07421875 19.5 C22.60015625 20.91019409 22.60015625 20.91019409 23.13671875 22.34887695 C23.83021987 24.22232899 24.51657777 26.09844274 25.1953125 27.97729492 C25.51628906 28.84459229 25.83726562 29.71188965 26.16796875 30.60546875 C26.58985474 31.76792114 26.58985474 31.76792114 27.02026367 32.95385742 C28.06119832 35.1278104 29.29101713 36.33438163 31 38 C31 38.66 31 39.32 31 40 C24.4 40 17.8 40 11 40 C11.33 38.02 11.66 36.04 12 34 C11.67 33.01 11.34 32.02 11 31 C5.72 31 0.44 31 -5 31 C-6.08219949 36.47940321 -6.08219949 36.47940321 -6 40 C-8.97 40 -11.94 40 -15 40 C-13 36 -13 36 -11.9921875 34.125 C-8.85404188 28.15593979 -6.24149944 21.98532814 -3.6875 15.75 C-3.32575684 14.88632812 -2.96401367 14.02265625 -2.59130859 13.1328125 C-2.08784912 11.88371094 -2.08784912 11.88371094 -1.57421875 10.609375 C-1.27088623 9.86655273 -0.96755371 9.12373047 -0.6550293 8.35839844 C0.267613 5.44441913 0.267613 5.44441913 0 0 Z " fill="#F49E00" transform="translate(318,394)"/>
<path d="M0 0 C4.62 0 9.24 0 14 0 C16.83793682 6.45630626 19.60966833 12.8913029 22.07421875 19.5 C22.60015625 20.91019409 22.60015625 20.91019409 23.13671875 22.34887695 C23.83021987 24.22232899 24.51657777 26.09844274 25.1953125 27.97729492 C25.51628906 28.84459229 25.83726562 29.71188965 26.16796875 30.60546875 C26.58985474 31.76792114 26.58985474 31.76792114 27.02026367 32.95385742 C28.06119832 35.1278104 29.29101713 36.33438163 31 38 C31 38.66 31 39.32 31 40 C24.4 40 17.8 40 11 40 C11.33 38.02 11.66 36.04 12 34 C11.67 33.01 11.34 32.02 11 31 C5.72 31 0.44 31 -5 31 C-6.08219949 36.47940321 -6.08219949 36.47940321 -6 40 C-8.97 40 -11.94 40 -15 40 C-13 36 -13 36 -11.9921875 34.125 C-8.85404188 28.15593979 -6.24149944 21.98532814 -3.6875 15.75 C-3.32575684 14.88632812 -2.96401367 14.02265625 -2.59130859 13.1328125 C-2.08784912 11.88371094 -2.08784912 11.88371094 -1.57421875 10.609375 C-1.27088623 9.86655273 -0.96755371 9.12373047 -0.6550293 8.35839844 C0.267613 5.44441913 0.267613 5.44441913 0 0 Z " fill="#F49E00" transform="translate(232,394)"/>
<path d="M0 0 C5.32398808 -0.70551008 10.73621332 -1.37504607 16 0 C19.58424111 2.88673964 21.69062089 6.22388463 23.94824219 10.20654297 C25.40114892 12.68403898 27.0493699 15.00308782 28.71337891 17.34204102 C30.50421849 19.87468874 32.24744376 22.44071152 34 25 C34 18.07 34 11.14 34 4 C33.34 3.67 32.68 3.34 32 3 C32.33 2.01 32.66 1.02 33 0 C35.64 0 38.28 0 41 0 C40.83846436 0.51498047 40.67692871 1.02996094 40.51049805 1.56054688 C39.43429573 6.70326021 39.81410243 12.08618692 39.81469727 17.32666016 C39.81250737 19.49271191 39.79432128 21.65825676 39.77539062 23.82421875 C39.77245691 25.20572743 39.77047197 26.58723852 39.76953125 27.96875 C39.76542236 29.22107422 39.76131348 30.47339844 39.75708008 31.76367188 C39.98461126 34.79498171 40.39854792 36.46433448 42 39 C36.96497158 39.84588477 31.94249934 40.55190673 27 39 C23.1371676 35.51556751 20.7622315 31.58149284 18.21337891 27.08447266 C16.11471492 23.47916218 13.72051464 20.07242869 11.375 16.625 C9.91016437 14.42088644 8.45512231 12.2105475 7 10 C6.9419228 14.08327357 6.90637751 18.16644083 6.875 22.25 C6.85824219 23.40886719 6.84148437 24.56773437 6.82421875 25.76171875 C6.81777344 26.87675781 6.81132812 27.99179687 6.8046875 29.140625 C6.79421387 30.16704102 6.78374023 31.19345703 6.77294922 32.25097656 C6.85575467 35.33163105 6.85575467 35.33163105 9 39 C6.03 39 3.06 39 0 39 C0 38.01 0 37.02 0 36 C0.66 36 1.32 36 2 36 C1.88153302 31.51577728 1.75727003 27.03176358 1.62768555 22.54785156 C1.58443293 21.02315614 1.54275115 19.49841531 1.50268555 17.97363281 C1.44474797 15.77915778 1.38112205 13.58490932 1.31640625 11.390625 C1.29969376 10.7113092 1.28298126 10.03199341 1.26576233 9.33209229 C1.16492528 6.09461448 0.96860824 3.10230396 0 0 Z " fill="#F2DE00" transform="translate(332,341)"/>
<path d="M0 0 C4.49980119 2.68073262 6.51275301 4.13596145 7.875 9.3125 C7.9375 12.75 7.9375 12.75 7 14.6875 C3.80657203 16.33259926 0.44596968 16.47149981 -3.0625 15.75 C-5.42971415 14.08699144 -5.98602501 13.12069937 -6.57421875 10.26953125 C-6.63222656 9.37621094 -6.69023437 8.48289062 -6.75 7.5625 C-6.81574219 6.66144531 -6.88148438 5.76039063 -6.94921875 4.83203125 C-6.98660156 4.14496094 -7.02398437 3.45789063 -7.0625 2.75 C-8.320625 2.6675 -9.57875 2.585 -10.875 2.5 C-11.58269531 2.45359375 -12.29039063 2.4071875 -13.01953125 2.359375 C-15.18708813 2.59103443 -15.18708813 2.59103443 -16.796875 4.3125 C-19.69816809 9.90017558 -19.01245856 18.43732399 -17.30078125 24.40625 C-15.60437359 28.00022038 -13.7180999 31.07886862 -10.0625 32.75 C-6.0830911 33.25647022 -3.85241797 33.18086435 -0.3125 31.25 C2.66335575 27.94349361 3.59830826 24.97902655 4.9375 20.75 C6.2575 21.08 7.5775 21.41 8.9375 21.75 C8.47248644 26.49313827 7.97616331 30.00231525 4.9375 33.75 C-1.57767595 38.4352476 -8.18493224 39.73046981 -16.0625 38.75 C-23.15122832 36.46232067 -27.42234432 33.20834071 -31.0625 26.75 C-32.95508796 20.71583968 -33.05707259 14.15010791 -30.375 8.375 C-24.48875644 -1.86912915 -10.59330621 -4.19604986 0 0 Z " fill="#F5E000" transform="translate(140.0625,342.25)"/>
<path d="M0 0 C5.94 0 11.88 0 18 0 C17.67 1.32 17.34 2.64 17 4 C16.89866941 6.0269606 16.84541851 8.05655638 16.82421875 10.0859375 C16.80037109 11.26414062 16.77652344 12.44234375 16.75195312 13.65625 C16.70912279 16.1274306 16.67779726 18.59883844 16.65820312 21.0703125 C16.3928414 32.37595643 16.3928414 32.37595643 12 37 C6.50697356 40.29581586 1.33012672 40.75458464 -5 40 C-10.25464017 38.21540523 -12.94591949 35.49129487 -16 31 C-16.5625 28.375 -16.5625 28.375 -16 26 C-14.375 23.6875 -14.375 23.6875 -12 22 C-8.67126368 21.51455929 -6.80598107 21.54700334 -3.859375 23.203125 C-1.45441565 25.52724538 -1.42109236 26.89397198 -1.25 30.1875 C-1.19328125 31.08855469 -1.1365625 31.98960937 -1.078125 32.91796875 C-1.03945313 33.94857422 -1.03945313 33.94857422 -1 35 C-0.01 35.33 0.98 35.66 2 36 C1.88153302 31.51577728 1.75727003 27.03176358 1.62768555 22.54785156 C1.58443293 21.02315614 1.54275115 19.49841531 1.50268555 17.97363281 C1.44474797 15.77915778 1.38112205 13.58490932 1.31640625 11.390625 C1.29969376 10.7113092 1.28298126 10.03199341 1.26576233 9.33209229 C1.16227098 6.0093955 0.81366188 3.25464752 0 0 Z " fill="#EF9A00" transform="translate(282,395)"/>
<path d="M0 0 C5.94 0 11.88 0 18 0 C17.67 1.32 17.34 2.64 17 4 C16.74855396 8.3092518 16.76879517 12.62165966 16.75 16.9375 C16.729375 18.11763672 16.70875 19.29777344 16.6875 20.51367188 C16.68234375 21.65255859 16.6771875 22.79144531 16.671875 23.96484375 C16.6625293 25.0024585 16.65318359 26.04007324 16.64355469 27.10913086 C17.05443082 30.44144886 18.00336989 32.32210264 20 35 C23.04375557 35.90247633 25.90346834 35.62154614 29 35 C31.50160818 33.12379387 32.61945652 31.76108697 34 29 C34.084915 27.1136088 34.107193 25.22421485 34.09765625 23.3359375 C34.09443359 22.21445312 34.09121094 21.09296875 34.08789062 19.9375 C34.07951172 18.761875 34.07113281 17.58625 34.0625 16.375 C34.05798828 15.19164062 34.05347656 14.00828125 34.04882812 12.7890625 C34.03701467 9.85932493 34.02054258 6.92968728 34 4 C33.34 3.67 32.68 3.34 32 3 C32 2.01 32 1.02 32 0 C34.97 0 37.94 0 41 0 C40 4 40 4 39 5 C38.87847683 6.78240254 38.8203125 8.56920166 38.7890625 10.35546875 C38.74652344 12.00192383 38.74652344 12.00192383 38.703125 13.68164062 C38.6514803 15.99919637 38.60708276 18.31692616 38.5703125 20.63476562 C38.26805221 31.42167977 38.26805221 31.42167977 35 36 C30.21889049 40.30875893 24.06950204 40.61239338 17.90625 40.38671875 C12.19790196 39.62714018 8.45421402 37.56607663 4.5625 33.375 C2.20016398 29.78424925 1.847139 27.76325269 1.71875 23.4765625 C1.68136719 22.373125 1.64398438 21.2696875 1.60546875 20.1328125 C1.57066406 18.97523438 1.53585938 17.81765625 1.5 16.625 C1.43102382 14.34623148 1.35826261 12.06757358 1.28125 9.7890625 C1.25095703 8.77537598 1.22066406 7.76168945 1.18945312 6.71728516 C1.06231092 3.75490545 1.06231092 3.75490545 0 0 Z " fill="#EFDB00" transform="translate(198,341)"/>
<path d="M0 0 C3.25 0.0625 3.25 0.0625 7 1 C11.94567812 6.56022984 12.20175727 13.39625856 12.25 20.5 C12.270625 21.25925781 12.29125 22.01851563 12.3125 22.80078125 C12.33567678 26.10926616 12.23733422 28.55255519 10.671875 31.50390625 C9 33 9 33 6 33.4375 C2.6360928 32.9469302 2.09210216 32.52554873 0 30 C-3.64841628 22.82789963 -5.11210346 13.97248193 -4 6 C-2.89660035 3.64865053 -1.66482627 2.02900702 0 0 Z " fill="#080700" transform="translate(304,344)"/>
<path d="M0 0 C2.5 0.625 2.5 0.625 4.625 2.5 C9.08567366 9.93445611 10.53779579 18.02612058 9.5 26.625 C7.52857143 31.59642857 7.52857143 31.59642857 5.5 33.625 C2.75 34.1875 2.75 34.1875 -0.5 33.625 C-4.60043917 29.33966039 -6.21216675 24.47760945 -6.5 18.625 C-6.561875 17.58472656 -6.62375 16.54445313 -6.6875 15.47265625 C-7.01360084 6.41316732 -7.01360084 6.41316732 -4.63671875 2.765625 C-2.5 0.625 -2.5 0.625 0 0 Z " fill="#070600" transform="translate(171.5,343.375)"/>
<path d="M0 0 C9 1 9 1 11.5625 3.125 C13.37462469 6.74924937 13.50128322 8.98973424 13 13 C11.34860695 16.5386994 10.28394771 17.81070153 7 20 C4.69 20 2.38 20 0 20 C0 13.4 0 6.8 0 0 Z " fill="#050500" transform="translate(258,345)"/>
<path d="M0 0 C3.33827479 0.16974279 4.99575025 0.32398094 7.6875 2.1875 C9.29652074 5.40554148 9.28592983 8.70697705 8.6875 12.1875 C6.625 14.6875 6.625 14.6875 3.6875 16.1875 C-0.0625 16.5 -0.0625 16.5 -3.3125 16.1875 C-4.3125 15.1875 -4.3125 15.1875 -4.4453125 12.0625 C-4.44273437 10.78375 -4.44015625 9.505 -4.4375 8.1875 C-4.44007813 6.90875 -4.44265625 5.63 -4.4453125 4.3125 C-4.27230897 0.24182881 -4.27230897 0.24182881 0 0 Z " fill="#0C0800" transform="translate(189.3125,398.8125)"/>
<path d="M0 0 C1.9009762 2.8514643 2.96265899 5.29710476 4.125 8.5 C4.47820312 9.4590625 4.83140625 10.418125 5.1953125 11.40625 C6 14 6 14 6 17 C2.04 17 -1.92 17 -6 17 C-5.15813297 12.79066487 -4.10885537 9.58732921 -2.4375 5.6875 C-1.75494141 4.08455078 -1.75494141 4.08455078 -1.05859375 2.44921875 C-0.53458984 1.23685547 -0.53458984 1.23685547 0 0 Z " fill="#0D0800" transform="translate(321,403)"/>
<path d="M0 0 C1.9009762 2.8514643 2.96265899 5.29710476 4.125 8.5 C4.47820312 9.4590625 4.83140625 10.418125 5.1953125 11.40625 C6 14 6 14 6 17 C2.04 17 -1.92 17 -6 17 C-5.15813297 12.79066487 -4.10885537 9.58732921 -2.4375 5.6875 C-1.75494141 4.08455078 -1.75494141 4.08455078 -1.05859375 2.44921875 C-0.53458984 1.23685547 -0.53458984 1.23685547 0 0 Z " fill="#0D0800" transform="translate(235,403)"/>
<path d="M0 0 C0.74773682 -0.00990967 1.49547363 -0.01981934 2.26586914 -0.0300293 C6.95930206 0.0418908 10.49071146 0.9508861 14.8059082 2.74047852 C18.2438875 3.93471515 21.70112092 4.00796457 25.3125 4.125 C26.03953125 4.15916016 26.7665625 4.19332031 27.515625 4.22851562 C29.2807529 4.30980441 31.04659463 4.37535042 32.8125 4.4375 C27.42857143 9.96428571 27.42857143 9.96428571 23.8125 11.4375 C23.049375 10.695 22.28625 9.9525 21.5 9.1875 C14.14671375 3.17117489 5.6114681 1.77973135 -3.67578125 2.03515625 C-9.18299395 2.66612723 -14.04602087 4.45572244 -19.1875 6.4375 C-20.51461192 6.79479936 -21.84608186 7.13835746 -23.1875 7.4375 C-17.25911036 0.7847412 -8.41141786 0.05797397 0 0 Z " fill="#AF8800" transform="translate(225.1875,256.5625)"/>
<path d="M0 0 C3.96 0 7.92 0 12 0 C10.35 1.98 8.7 3.96 7 6 C3.28139821 4.46126823 2.64366459 3.52488612 0 0 Z " fill="#150E00" transform="translate(244,262)"/>
<path d="M0 0 C0.78375 0.04125 1.5675 0.0825 2.375 0.125 C0.395 1.115 0.395 1.115 -1.625 2.125 C-1.295 2.785 -0.965 3.445 -0.625 4.125 C-2.275 4.785 -3.925 5.445 -5.625 6.125 C-4.86443086 2.32215429 -4.27658992 0.20364714 0 0 Z " fill="#D2BF00" transform="translate(368.625,283.875)"/>
</svg>
